<svg xmlns="http://www.w3.org/2000/svg" viewBox="0 0 64 64" role="img" aria-label="CitaLink">
  <defs>
    <linearGradient id="bg" x1="8" y1="6" x2="58" y2="62" gradientUnits="userSpaceOnUse">
      <stop offset="0" stop-color="#11131d"/>
      <stop offset="0.46" stop-color="#080910"/>
      <stop offset="1" stop-color="#241018"/>
    </linearGradient>
    <linearGradient id="gold" x1="13" y1="11" x2="52" y2="52" gradientUnits="userSpaceOnUse">
      <stop offset="0" stop-color="#ffe6a0"/>
      <stop offset="0.42" stop-color="#f4ca71"/>
      <stop offset="1" stop-color="#b93158"/>
    </linearGradient>
    <filter id="glow" x="-40%" y="-40%" width="180%" height="180%">
      <feGaussianBlur stdDeviation="2.2" result="blur"/>
      <feColorMatrix in="blur" type="matrix" values="1 0 0 0 0.95 0 1 0 0 0.68 0 0 1 0 0.24 0 0 0 0.72 0"/>
      <feMerge>
        <feMergeNode/>
        <feMergeNode in="SourceGraphic"/>
      </feMerge>
    </filter>
  </defs>
  <rect x="4" y="4" width="56" height="56" rx="15" fill="url(#bg)"/>
  <rect x="5" y="5" width="54" height="54" rx="14" fill="none" stroke="#ffffff" stroke-opacity="0.12"/>
  <path d="M42 17.5c-3.1-2.1-6.8-3.3-10.8-3.3-10.4 0-18.9 7.8-18.9 17.8s8.5 17.8 18.9 17.8c4.8 0 9.2-1.7 12.5-4.5" fill="none" stroke="url(#gold)" stroke-width="5.4" stroke-linecap="round"/>
  <path d="M36.9 20.2 26.6 34h9.2l-4.2 10.2 13.2-16h-9.1z" fill="url(#gold)" filter="url(#glow)"/>
  <path d="M44.7 40.1h5.2m-2.6-2.6v5.2" stroke="#f9df9b" stroke-width="2.4" stroke-linecap="round"/>
  <circle cx="20.4" cy="20.6" r="2" fill="#f9df9b"/>
</svg>
